solid OpenSCAD_Model
  facet normal -1 0 0
    outer loop
      vertex 0 0 0
      vertex 0 55 1
      vertex 0 55 0
    endloop
  endfacet
  facet normal -1 -0 0
    outer loop
      vertex 0 55 1
      vertex 0 0 0
      vertex 0 0 1
    endloop
  endfacet
  facet normal -0 0 1
    outer loop
      vertex 5.29443 50.0595 1
      vertex 10 35 1
      vertex 5.52169 50.5056 1
    endloop
  endfacet
  facet normal 0 0 1
    outer loop
      vertex 10 35 1
      vertex 5.52169 4.49443 1
      vertex 5.6 4 1
    endloop
  endfacet
  facet normal -0 0 1
    outer loop
      vertex 4.94046 49.7056 1
      vertex 10 35 1
      vertex 5.29443 50.0595 1
    endloop
  endfacet
  facet normal 0 0 1
    outer loop
      vertex 10 35 1
      vertex 5.29443 4.94046 1
      vertex 5.52169 4.49443 1
    endloop
  endfacet
  facet normal -0 0 1
    outer loop
      vertex 4.49443 49.4783 1
      vertex 10 35 1
      vertex 4.94046 49.7056 1
    endloop
  endfacet
  facet normal 0 0 1
    outer loop
      vertex 10 35 1
      vertex 4.94046 5.29443 1
      vertex 5.29443 4.94046 1
    endloop
  endfacet
  facet normal -0 0 1
    outer loop
      vertex 4 49.4 1
      vertex 10 35 1
      vertex 4.49443 49.4783 1
    endloop
  endfacet
  facet normal 0 0 1
    outer loop
      vertex 10 35 1
      vertex 4.49443 5.52169 1
      vertex 4.94046 5.29443 1
    endloop
  endfacet
  facet normal 0 0 1
    outer loop
      vertex 10 35 1
      vertex 4 5.6 1
      vertex 4.49443 5.52169 1
    endloop
  endfacet
  facet normal 0 0 1
    outer loop
      vertex 3.50557 49.4783 1
      vertex 10 35 1
      vertex 4 49.4 1
    endloop
  endfacet
  facet normal 0 0 1
    outer loop
      vertex 3.05954 49.7056 1
      vertex 10 35 1
      vertex 3.50557 49.4783 1
    endloop
  endfacet
  facet normal 0 0 1
    outer loop
      vertex 10 35 1
      vertex 3.50557 5.52169 1
      vertex 4 5.6 1
    endloop
  endfacet
  facet normal 0 0 1
    outer loop
      vertex 2.70557 50.0595 1
      vertex 10 35 1
      vertex 3.05954 49.7056 1
    endloop
  endfacet
  facet normal 0 0 1
    outer loop
      vertex 10 35 1
      vertex 3.05954 5.29443 1
      vertex 3.50557 5.52169 1
    endloop
  endfacet
  facet normal 0 0 1
    outer loop
      vertex 2.70557 4.94046 1
      vertex 10 35 1
      vertex 2.70557 50.0595 1
    endloop
  endfacet
  facet normal 0 0 1
    outer loop
      vertex 10 35 1
      vertex 2.70557 4.94046 1
      vertex 3.05954 5.29443 1
    endloop
  endfacet
  facet normal 0 0 1
    outer loop
      vertex 2.47831 50.5056 1
      vertex 2.70557 4.94046 1
      vertex 2.70557 50.0595 1
    endloop
  endfacet
  facet normal 0 0 1
    outer loop
      vertex 2.47831 50.5056 1
      vertex 2.47831 4.49443 1
      vertex 2.70557 4.94046 1
    endloop
  endfacet
  facet normal 0 0 1
    outer loop
      vertex 0 55 1
      vertex 2.47831 50.5056 1
      vertex 2.4 51 1
    endloop
  endfacet
  facet normal 0 0 1
    outer loop
      vertex 2.47831 50.5056 1
      vertex 0 55 1
      vertex 2.47831 4.49443 1
    endloop
  endfacet
  facet normal -0 0 1
    outer loop
      vertex 107.522 4.49443 1
      vertex 110 0 1
      vertex 107.522 50.5056 1
    endloop
  endfacet
  facet normal 0 0 1
    outer loop
      vertex 110 0 1
      vertex 107.522 4.49443 1
      vertex 107.6 4 1
    endloop
  endfacet
  facet normal -0 0 1
    outer loop
      vertex 107.294 50.0595 1
      vertex 107.522 4.49443 1
      vertex 107.522 50.5056 1
    endloop
  endfacet
  facet normal 0 0 1
    outer loop
      vertex 107.294 50.0595 1
      vertex 107.294 4.94046 1
      vertex 107.522 4.49443 1
    endloop
  endfacet
  facet normal -0 0 1
    outer loop
      vertex 106.94 49.7056 1
      vertex 107.294 4.94046 1
      vertex 107.294 50.0595 1
    endloop
  endfacet
  facet normal 0 0 1
    outer loop
      vertex 106.94 49.7056 1
      vertex 106.94 5.29443 1
      vertex 107.294 4.94046 1
    endloop
  endfacet
  facet normal -0 0 1
    outer loop
      vertex 106.494 49.4783 1
      vertex 106.94 5.29443 1
      vertex 106.94 49.7056 1
    endloop
  endfacet
  facet normal 0 0 1
    outer loop
      vertex 106.494 49.4783 1
      vertex 106.494 5.52169 1
      vertex 106.94 5.29443 1
    endloop
  endfacet
  facet normal -0 0 1
    outer loop
      vertex 106 49.4 1
      vertex 106.494 5.52169 1
      vertex 106.494 49.4783 1
    endloop
  endfacet
  facet normal 0 0 1
    outer loop
      vertex 106 49.4 1
      vertex 106 5.6 1
      vertex 106.494 5.52169 1
    endloop
  endfacet
  facet normal 0 0 1
    outer loop
      vertex 105.506 49.4783 1
      vertex 106 5.6 1
      vertex 106 49.4 1
    endloop
  endfacet
  facet normal 0 0 1
    outer loop
      vertex 105.506 49.4783 1
      vertex 105.506 5.52169 1
      vertex 106 5.6 1
    endloop
  endfacet
  facet normal 0 0 1
    outer loop
      vertex 105.06 49.7056 1
      vertex 105.506 5.52169 1
      vertex 105.506 49.4783 1
    endloop
  endfacet
  facet normal 0 0 1
    outer loop
      vertex 105.06 49.7056 1
      vertex 105.06 5.29443 1
      vertex 105.506 5.52169 1
    endloop
  endfacet
  facet normal 0 0 1
    outer loop
      vertex 63 35 1
      vertex 105.06 49.7056 1
      vertex 104.706 50.0595 1
    endloop
  endfacet
  facet normal 0 0 1
    outer loop
      vertex 105.06 49.7056 1
      vertex 63 35 1
      vertex 105.06 5.29443 1
    endloop
  endfacet
  facet normal 0 0 1
    outer loop
      vertex 63 35 1
      vertex 104.706 50.0595 1
      vertex 104.478 50.5056 1
    endloop
  endfacet
  facet normal -0 0 1
    outer loop
      vertex 63 17 1
      vertex 105.06 5.29443 1
      vertex 63 35 1
    endloop
  endfacet
  facet normal 0 0 1
    outer loop
      vertex 63 35 1
      vertex 104.478 50.5056 1
      vertex 104.4 51 1
    endloop
  endfacet
  facet normal 0 0 1
    outer loop
      vertex 105.06 5.29443 1
      vertex 63 17 1
      vertex 104.706 4.94046 1
    endloop
  endfacet
  facet normal 0 0 1
    outer loop
      vertex 107.522 50.5056 1
      vertex 110 55 1
      vertex 107.6 51 1
    endloop
  endfacet
  facet normal 0 0 1
    outer loop
      vertex 110 55 1
      vertex 107.522 51.4944 1
      vertex 107.6 51 1
    endloop
  endfacet
  facet normal 0 0 1
    outer loop
      vertex 110 55 1
      vertex 107.294 51.9405 1
      vertex 107.522 51.4944 1
    endloop
  endfacet
  facet normal 0 0 1
    outer loop
      vertex 110 55 1
      vertex 106.94 52.2944 1
      vertex 107.294 51.9405 1
    endloop
  endfacet
  facet normal 0 0 1
    outer loop
      vertex 110 55 1
      vertex 106.494 52.5217 1
      vertex 106.94 52.2944 1
    endloop
  endfacet
  facet normal 0 0 1
    outer loop
      vertex 110 55 1
      vertex 106 52.6 1
      vertex 106.494 52.5217 1
    endloop
  endfacet
  facet normal 0 0 1
    outer loop
      vertex 110 55 1
      vertex 105.506 52.5217 1
      vertex 106 52.6 1
    endloop
  endfacet
  facet normal 0 0 1
    outer loop
      vertex 110 55 1
      vertex 105.06 52.2944 1
      vertex 105.506 52.5217 1
    endloop
  endfacet
  facet normal 0 0 1
    outer loop
      vertex 104.706 4.94046 1
      vertex 63 17 1
      vertex 104.478 4.49443 1
    endloop
  endfacet
  facet normal 0 0 1
    outer loop
      vertex 104.478 51.4944 1
      vertex 63 35 1
      vertex 104.4 51 1
    endloop
  endfacet
  facet normal 0 0 1
    outer loop
      vertex 104.706 51.9405 1
      vertex 63 35 1
      vertex 104.478 51.4944 1
    endloop
  endfacet
  facet normal 0 0 1
    outer loop
      vertex 105.06 52.2944 1
      vertex 63 35 1
      vertex 104.706 51.9405 1
    endloop
  endfacet
  facet normal 0 0 1
    outer loop
      vertex 4.94046 52.2944 1
      vertex 105.06 52.2944 1
      vertex 110 55 1
    endloop
  endfacet
  facet normal 0 0 1
    outer loop
      vertex 105.06 52.2944 1
      vertex 4.94046 52.2944 1
      vertex 63 35 1
    endloop
  endfacet
  facet normal -0 0 1
    outer loop
      vertex 5.52169 50.5056 1
      vertex 10 35 1
      vertex 5.6 51 1
    endloop
  endfacet
  facet normal 0 0 1
    outer loop
      vertex 63 35 1
      vertex 5.6 51 1
      vertex 10 35 1
    endloop
  endfacet
  facet normal 0 0 1
    outer loop
      vertex 63 35 1
      vertex 5.52169 51.4944 1
      vertex 5.6 51 1
    endloop
  endfacet
  facet normal 0 0 1
    outer loop
      vertex 63 35 1
      vertex 5.29443 51.9405 1
      vertex 5.52169 51.4944 1
    endloop
  endfacet
  facet normal 0 0 1
    outer loop
      vertex 63 35 1
      vertex 4.94046 52.2944 1
      vertex 5.29443 51.9405 1
    endloop
  endfacet
  facet normal 0 0 1
    outer loop
      vertex 110 55 1
      vertex 4.49443 52.5217 1
      vertex 4.94046 52.2944 1
    endloop
  endfacet
  facet normal -0 0 1
    outer loop
      vertex 0 55 1
      vertex 4.49443 52.5217 1
      vertex 110 55 1
    endloop
  endfacet
  facet normal 0 0 1
    outer loop
      vertex 0 0 1
      vertex 2.47831 4.49443 1
      vertex 0 55 1
    endloop
  endfacet
  facet normal 0 0 1
    outer loop
      vertex 2.47831 51.4944 1
      vertex 0 55 1
      vertex 2.4 51 1
    endloop
  endfacet
  facet normal 0 0 1
    outer loop
      vertex 2.70557 51.9405 1
      vertex 0 55 1
      vertex 2.47831 51.4944 1
    endloop
  endfacet
  facet normal 0 0 1
    outer loop
      vertex 3.05954 52.2944 1
      vertex 0 55 1
      vertex 2.70557 51.9405 1
    endloop
  endfacet
  facet normal 0 0 1
    outer loop
      vertex 3.50557 52.5217 1
      vertex 0 55 1
      vertex 3.05954 52.2944 1
    endloop
  endfacet
  facet normal 0 0 1
    outer loop
      vertex 4 52.6 1
      vertex 0 55 1
      vertex 3.50557 52.5217 1
    endloop
  endfacet
  facet normal 0 0 1
    outer loop
      vertex 4.49443 52.5217 1
      vertex 0 55 1
      vertex 4 52.6 1
    endloop
  endfacet
  facet normal 0 0 1
    outer loop
      vertex 110 55 1
      vertex 107.522 50.5056 1
      vertex 110 0 1
    endloop
  endfacet
  facet normal -0 0 1
    outer loop
      vertex 107.522 3.50557 1
      vertex 110 0 1
      vertex 107.6 4 1
    endloop
  endfacet
  facet normal -0 0 1
    outer loop
      vertex 107.294 3.05954 1
      vertex 110 0 1
      vertex 107.522 3.50557 1
    endloop
  endfacet
  facet normal -0 0 1
    outer loop
      vertex 106.94 2.70557 1
      vertex 110 0 1
      vertex 107.294 3.05954 1
    endloop
  endfacet
  facet normal -0 0 1
    outer loop
      vertex 106.494 2.47831 1
      vertex 110 0 1
      vertex 106.94 2.70557 1
    endloop
  endfacet
  facet normal -0 0 1
    outer loop
      vertex 106 2.4 1
      vertex 110 0 1
      vertex 106.494 2.47831 1
    endloop
  endfacet
  facet normal 0 0 1
    outer loop
      vertex 105.506 2.47831 1
      vertex 110 0 1
      vertex 106 2.4 1
    endloop
  endfacet
  facet normal 0 0 1
    outer loop
      vertex 105.06 2.70557 1
      vertex 110 0 1
      vertex 105.506 2.47831 1
    endloop
  endfacet
  facet normal 0 0 1
    outer loop
      vertex 104.478 4.49443 1
      vertex 63 17 1
      vertex 104.4 4 1
    endloop
  endfacet
  facet normal 0 0 1
    outer loop
      vertex 104.4 4 1
      vertex 63 17 1
      vertex 104.478 3.50557 1
    endloop
  endfacet
  facet normal 0 0 1
    outer loop
      vertex 104.478 3.50557 1
      vertex 63 17 1
      vertex 104.706 3.05954 1
    endloop
  endfacet
  facet normal 0 0 1
    outer loop
      vertex 104.706 3.05954 1
      vertex 63 17 1
      vertex 105.06 2.70557 1
    endloop
  endfacet
  facet normal 0 0 1
    outer loop
      vertex 4.94046 2.70557 1
      vertex 105.06 2.70557 1
      vertex 63 17 1
    endloop
  endfacet
  facet normal 0 0 1
    outer loop
      vertex 5.6 4 1
      vertex 63 17 1
      vertex 10 17 1
    endloop
  endfacet
  facet normal 0 0 1
    outer loop
      vertex 10 35 1
      vertex 5.6 4 1
      vertex 10 17 1
    endloop
  endfacet
  facet normal 0 0 1
    outer loop
      vertex 63 17 1
      vertex 5.6 4 1
      vertex 5.52169 3.50557 1
    endloop
  endfacet
  facet normal 0 0 1
    outer loop
      vertex 5.29443 3.05954 1
      vertex 63 17 1
      vertex 5.52169 3.50557 1
    endloop
  endfacet
  facet normal 0 0 1
    outer loop
      vertex 4.94046 2.70557 1
      vertex 63 17 1
      vertex 5.29443 3.05954 1
    endloop
  endfacet
  facet normal 0 0 1
    outer loop
      vertex 105.06 2.70557 1
      vertex 4.94046 2.70557 1
      vertex 110 0 1
    endloop
  endfacet
  facet normal -0 0 1
    outer loop
      vertex 4.49443 2.47831 1
      vertex 110 0 1
      vertex 4.94046 2.70557 1
    endloop
  endfacet
  facet normal 0 0 1
    outer loop
      vertex 0 0 1
      vertex 4.49443 2.47831 1
      vertex 4 2.4 1
    endloop
  endfacet
  facet normal 0 0 1
    outer loop
      vertex 4.49443 2.47831 1
      vertex 0 0 1
      vertex 110 0 1
    endloop
  endfacet
  facet normal 0 0 1
    outer loop
      vertex 3.50557 2.47831 1
      vertex 0 0 1
      vertex 4 2.4 1
    endloop
  endfacet
  facet normal 0 0 1
    outer loop
      vertex 3.05954 2.70557 1
      vertex 0 0 1
      vertex 3.50557 2.47831 1
    endloop
  endfacet
  facet normal 0 0 1
    outer loop
      vertex 2.70557 3.05954 1
      vertex 0 0 1
      vertex 3.05954 2.70557 1
    endloop
  endfacet
  facet normal 0 0 1
    outer loop
      vertex 2.47831 3.50557 1
      vertex 0 0 1
      vertex 2.70557 3.05954 1
    endloop
  endfacet
  facet normal 0 0 1
    outer loop
      vertex 2.4 4 1
      vertex 0 0 1
      vertex 2.47831 3.50557 1
    endloop
  endfacet
  facet normal 0 0 1
    outer loop
      vertex 2.47831 4.49443 1
      vertex 0 0 1
      vertex 2.4 4 1
    endloop
  endfacet
  facet normal 1 -0 0
    outer loop
      vertex 110 0 1
      vertex 110 55 0
      vertex 110 55 1
    endloop
  endfacet
  facet normal 1 0 0
    outer loop
      vertex 110 55 0
      vertex 110 0 1
      vertex 110 0 0
    endloop
  endfacet
  facet normal 0 1 -0
    outer loop
      vertex 110 55 0
      vertex 0 55 1
      vertex 110 55 1
    endloop
  endfacet
  facet normal 0 1 0
    outer loop
      vertex 0 55 1
      vertex 110 55 0
      vertex 0 55 0
    endloop
  endfacet
  facet normal 0 0 -1
    outer loop
      vertex 4.94046 5.29443 0
      vertex 10 17 0
      vertex 5.29443 4.94046 0
    endloop
  endfacet
  facet normal 0 0 -1
    outer loop
      vertex 10 35 0
      vertex 5.52169 50.5056 0
      vertex 5.6 51 0
    endloop
  endfacet
  facet normal 0 0 -1
    outer loop
      vertex 4.49443 5.52169 0
      vertex 10 17 0
      vertex 4.94046 5.29443 0
    endloop
  endfacet
  facet normal 0 0 -1
    outer loop
      vertex 10 35 0
      vertex 5.29443 50.0595 0
      vertex 5.52169 50.5056 0
    endloop
  endfacet
  facet normal 0 0 -1
    outer loop
      vertex 4 5.6 0
      vertex 10 17 0
      vertex 4.49443 5.52169 0
    endloop
  endfacet
  facet normal 0 0 -1
    outer loop
      vertex 10 35 0
      vertex 4.94046 49.7056 0
      vertex 5.29443 50.0595 0
    endloop
  endfacet
  facet normal 0 0 -1
    outer loop
      vertex 3.50557 5.52169 0
      vertex 10 17 0
      vertex 4 5.6 0
    endloop
  endfacet
  facet normal 0 0 -1
    outer loop
      vertex 10 35 0
      vertex 4.49443 49.4783 0
      vertex 4.94046 49.7056 0
    endloop
  endfacet
  facet normal 0 0 -1
    outer loop
      vertex 3.05954 5.29443 0
      vertex 10 17 0
      vertex 3.50557 5.52169 0
    endloop
  endfacet
  facet normal 0 0 -1
    outer loop
      vertex 10 35 0
      vertex 4 49.4 0
      vertex 4.49443 49.4783 0
    endloop
  endfacet
  facet normal 0 0 -1
    outer loop
      vertex 2.70557 4.94046 0
      vertex 10 17 0
      vertex 3.05954 5.29443 0
    endloop
  endfacet
  facet normal 0 0 -1
    outer loop
      vertex 10 35 0
      vertex 3.50557 49.4783 0
      vertex 4 49.4 0
    endloop
  endfacet
  facet normal -0 0 -1
    outer loop
      vertex 10 17 0
      vertex 2.70557 4.94046 0
      vertex 10 35 0
    endloop
  endfacet
  facet normal 0 0 -1
    outer loop
      vertex 10 35 0
      vertex 3.05954 49.7056 0
      vertex 3.50557 49.4783 0
    endloop
  endfacet
  facet normal 0 0 -1
    outer loop
      vertex 2.70557 50.0595 0
      vertex 10 35 0
      vertex 2.70557 4.94046 0
    endloop
  endfacet
  facet normal 0 0 -1
    outer loop
      vertex 10 35 0
      vertex 2.70557 50.0595 0
      vertex 3.05954 49.7056 0
    endloop
  endfacet
  facet normal 0 0 -1
    outer loop
      vertex 2.47831 4.49443 0
      vertex 2.70557 50.0595 0
      vertex 2.70557 4.94046 0
    endloop
  endfacet
  facet normal 0 0 -1
    outer loop
      vertex 2.47831 4.49443 0
      vertex 2.47831 50.5056 0
      vertex 2.70557 50.0595 0
    endloop
  endfacet
  facet normal 0 0 -1
    outer loop
      vertex 0 0 0
      vertex 2.47831 4.49443 0
      vertex 2.4 4 0
    endloop
  endfacet
  facet normal -0 0 -1
    outer loop
      vertex 2.47831 4.49443 0
      vertex 0 0 0
      vertex 2.47831 50.5056 0
    endloop
  endfacet
  facet normal 0 0 -1
    outer loop
      vertex 107.522 50.5056 0
      vertex 110 55 0
      vertex 107.522 4.49443 0
    endloop
  endfacet
  facet normal 0 0 -1
    outer loop
      vertex 110 55 0
      vertex 107.522 50.5056 0
      vertex 107.6 51 0
    endloop
  endfacet
  facet normal 0 0 -1
    outer loop
      vertex 107.294 4.94046 0
      vertex 107.522 50.5056 0
      vertex 107.522 4.49443 0
    endloop
  endfacet
  facet normal 0 0 -1
    outer loop
      vertex 107.294 4.94046 0
      vertex 107.294 50.0595 0
      vertex 107.522 50.5056 0
    endloop
  endfacet
  facet normal 0 0 -1
    outer loop
      vertex 106.94 5.29443 0
      vertex 107.294 50.0595 0
      vertex 107.294 4.94046 0
    endloop
  endfacet
  facet normal 0 0 -1
    outer loop
      vertex 106.94 5.29443 0
      vertex 106.94 49.7056 0
      vertex 107.294 50.0595 0
    endloop
  endfacet
  facet normal 0 0 -1
    outer loop
      vertex 106.494 5.52169 0
      vertex 106.94 49.7056 0
      vertex 106.94 5.29443 0
    endloop
  endfacet
  facet normal 0 0 -1
    outer loop
      vertex 106.494 5.52169 0
      vertex 106.494 49.4783 0
      vertex 106.94 49.7056 0
    endloop
  endfacet
  facet normal 0 0 -1
    outer loop
      vertex 106 5.6 0
      vertex 106.494 49.4783 0
      vertex 106.494 5.52169 0
    endloop
  endfacet
  facet normal 0 0 -1
    outer loop
      vertex 106 5.6 0
      vertex 106 49.4 0
      vertex 106.494 49.4783 0
    endloop
  endfacet
  facet normal 0 0 -1
    outer loop
      vertex 105.506 5.52169 0
      vertex 106 49.4 0
      vertex 106 5.6 0
    endloop
  endfacet
  facet normal 0 0 -1
    outer loop
      vertex 105.506 5.52169 0
      vertex 105.506 49.4783 0
      vertex 106 49.4 0
    endloop
  endfacet
  facet normal 0 0 -1
    outer loop
      vertex 105.06 5.29443 0
      vertex 105.506 49.4783 0
      vertex 105.506 5.52169 0
    endloop
  endfacet
  facet normal 0 0 -1
    outer loop
      vertex 105.06 5.29443 0
      vertex 105.06 49.7056 0
      vertex 105.506 49.4783 0
    endloop
  endfacet
  facet normal 0 0 -1
    outer loop
      vertex 63 17 0
      vertex 105.06 5.29443 0
      vertex 104.706 4.94046 0
    endloop
  endfacet
  facet normal 0 0 -1
    outer loop
      vertex 105.06 5.29443 0
      vertex 63 35 0
      vertex 105.06 49.7056 0
    endloop
  endfacet
  facet normal 0 0 -1
    outer loop
      vertex 63 17 0
      vertex 104.706 4.94046 0
      vertex 104.478 4.49443 0
    endloop
  endfacet
  facet normal -0 0 -1
    outer loop
      vertex 105.06 49.7056 0
      vertex 63 35 0
      vertex 104.706 50.0595 0
    endloop
  endfacet
  facet normal 0 0 -1
    outer loop
      vertex 63 17 0
      vertex 104.478 4.49443 0
      vertex 104.4 4 0
    endloop
  endfacet
  facet normal -0 0 -1
    outer loop
      vertex 104.706 50.0595 0
      vertex 63 35 0
      vertex 104.478 50.5056 0
    endloop
  endfacet
  facet normal 0 0 -1
    outer loop
      vertex 107.522 4.49443 0
      vertex 110 0 0
      vertex 107.6 4 0
    endloop
  endfacet
  facet normal 0 0 -1
    outer loop
      vertex 110 0 0
      vertex 107.522 3.50557 0
      vertex 107.6 4 0
    endloop
  endfacet
  facet normal 0 0 -1
    outer loop
      vertex 110 0 0
      vertex 107.294 3.05954 0
      vertex 107.522 3.50557 0
    endloop
  endfacet
  facet normal 0 0 -1
    outer loop
      vertex 110 0 0
      vertex 106.94 2.70557 0
      vertex 107.294 3.05954 0
    endloop
  endfacet
  facet normal 0 0 -1
    outer loop
      vertex 110 0 0
      vertex 106.494 2.47831 0
      vertex 106.94 2.70557 0
    endloop
  endfacet
  facet normal 0 0 -1
    outer loop
      vertex 110 0 0
      vertex 106 2.4 0
      vertex 106.494 2.47831 0
    endloop
  endfacet
  facet normal 0 0 -1
    outer loop
      vertex 110 0 0
      vertex 105.506 2.47831 0
      vertex 106 2.4 0
    endloop
  endfacet
  facet normal 0 0 -1
    outer loop
      vertex 110 0 0
      vertex 105.06 2.70557 0
      vertex 105.506 2.47831 0
    endloop
  endfacet
  facet normal 0 0 -1
    outer loop
      vertex 105.06 5.29443 0
      vertex 63 17 0
      vertex 63 35 0
    endloop
  endfacet
  facet normal 0 0 -1
    outer loop
      vertex 104.478 3.50557 0
      vertex 63 17 0
      vertex 104.4 4 0
    endloop
  endfacet
  facet normal 0 0 -1
    outer loop
      vertex 104.706 3.05954 0
      vertex 63 17 0
      vertex 104.478 3.50557 0
    endloop
  endfacet
  facet normal 0 0 -1
    outer loop
      vertex 105.06 2.70557 0
      vertex 63 17 0
      vertex 104.706 3.05954 0
    endloop
  endfacet
  facet normal 0 0 -1
    outer loop
      vertex 4.94046 2.70557 0
      vertex 105.06 2.70557 0
      vertex 110 0 0
    endloop
  endfacet
  facet normal 0 0 -1
    outer loop
      vertex 105.06 2.70557 0
      vertex 4.94046 2.70557 0
      vertex 63 17 0
    endloop
  endfacet
  facet normal 0 0 -1
    outer loop
      vertex 5.52169 4.49443 0
      vertex 10 17 0
      vertex 5.6 4 0
    endloop
  endfacet
  facet normal 0 -0 -1
    outer loop
      vertex 5.6 4 0
      vertex 63 17 0
      vertex 5.52169 3.50557 0
    endloop
  endfacet
  facet normal -0 0 -1
    outer loop
      vertex 63 17 0
      vertex 5.6 4 0
      vertex 10 17 0
    endloop
  endfacet
  facet normal 0 0 -1
    outer loop
      vertex 63 17 0
      vertex 5.29443 3.05954 0
      vertex 5.52169 3.50557 0
    endloop
  endfacet
  facet normal 0 0 -1
    outer loop
      vertex 63 17 0
      vertex 4.94046 2.70557 0
      vertex 5.29443 3.05954 0
    endloop
  endfacet
  facet normal 0 0 -1
    outer loop
      vertex 110 0 0
      vertex 4.49443 2.47831 0
      vertex 4.94046 2.70557 0
    endloop
  endfacet
  facet normal 0 0 -1
    outer loop
      vertex 0 0 0
      vertex 4.49443 2.47831 0
      vertex 110 0 0
    endloop
  endfacet
  facet normal 0 0 -1
    outer loop
      vertex 0 55 0
      vertex 2.47831 50.5056 0
      vertex 0 0 0
    endloop
  endfacet
  facet normal -0 0 -1
    outer loop
      vertex 2.47831 3.50557 0
      vertex 0 0 0
      vertex 2.4 4 0
    endloop
  endfacet
  facet normal -0 0 -1
    outer loop
      vertex 2.70557 3.05954 0
      vertex 0 0 0
      vertex 2.47831 3.50557 0
    endloop
  endfacet
  facet normal -0 0 -1
    outer loop
      vertex 3.05954 2.70557 0
      vertex 0 0 0
      vertex 2.70557 3.05954 0
    endloop
  endfacet
  facet normal -0 0 -1
    outer loop
      vertex 3.50557 2.47831 0
      vertex 0 0 0
      vertex 3.05954 2.70557 0
    endloop
  endfacet
  facet normal -0 0 -1
    outer loop
      vertex 4 2.4 0
      vertex 0 0 0
      vertex 3.50557 2.47831 0
    endloop
  endfacet
  facet normal 0 0 -1
    outer loop
      vertex 4.49443 2.47831 0
      vertex 0 0 0
      vertex 4 2.4 0
    endloop
  endfacet
  facet normal 0 0 -1
    outer loop
      vertex 110 0 0
      vertex 107.522 4.49443 0
      vertex 110 55 0
    endloop
  endfacet
  facet normal 0 0 -1
    outer loop
      vertex 107.522 51.4944 0
      vertex 110 55 0
      vertex 107.6 51 0
    endloop
  endfacet
  facet normal 0 0 -1
    outer loop
      vertex 107.294 51.9405 0
      vertex 110 55 0
      vertex 107.522 51.4944 0
    endloop
  endfacet
  facet normal 0 0 -1
    outer loop
      vertex 106.94 52.2944 0
      vertex 110 55 0
      vertex 107.294 51.9405 0
    endloop
  endfacet
  facet normal 0 0 -1
    outer loop
      vertex 106.494 52.5217 0
      vertex 110 55 0
      vertex 106.94 52.2944 0
    endloop
  endfacet
  facet normal 0 0 -1
    outer loop
      vertex 106 52.6 0
      vertex 110 55 0
      vertex 106.494 52.5217 0
    endloop
  endfacet
  facet normal 0 0 -1
    outer loop
      vertex 105.506 52.5217 0
      vertex 110 55 0
      vertex 106 52.6 0
    endloop
  endfacet
  facet normal 0 0 -1
    outer loop
      vertex 105.06 52.2944 0
      vertex 110 55 0
      vertex 105.506 52.5217 0
    endloop
  endfacet
  facet normal -0 0 -1
    outer loop
      vertex 104.478 50.5056 0
      vertex 63 35 0
      vertex 104.4 51 0
    endloop
  endfacet
  facet normal -0 0 -1
    outer loop
      vertex 104.4 51 0
      vertex 63 35 0
      vertex 104.478 51.4944 0
    endloop
  endfacet
  facet normal -0 0 -1
    outer loop
      vertex 104.478 51.4944 0
      vertex 63 35 0
      vertex 104.706 51.9405 0
    endloop
  endfacet
  facet normal -0 0 -1
    outer loop
      vertex 104.706 51.9405 0
      vertex 63 35 0
      vertex 105.06 52.2944 0
    endloop
  endfacet
  facet normal 0 0 -1
    outer loop
      vertex 4.94046 52.2944 0
      vertex 105.06 52.2944 0
      vertex 63 35 0
    endloop
  endfacet
  facet normal 0 0 -1
    outer loop
      vertex 5.6 51 0
      vertex 63 35 0
      vertex 10 35 0
    endloop
  endfacet
  facet normal 0 0 -1
    outer loop
      vertex 5.29443 4.94046 0
      vertex 10 17 0
      vertex 5.52169 4.49443 0
    endloop
  endfacet
  facet normal 0 0 -1
    outer loop
      vertex 5.52169 51.4944 0
      vertex 63 35 0
      vertex 5.6 51 0
    endloop
  endfacet
  facet normal 0 0 -1
    outer loop
      vertex 5.29443 51.9405 0
      vertex 63 35 0
      vertex 5.52169 51.4944 0
    endloop
  endfacet
  facet normal 0 0 -1
    outer loop
      vertex 4.94046 52.2944 0
      vertex 63 35 0
      vertex 5.29443 51.9405 0
    endloop
  endfacet
  facet normal 0 0 -1
    outer loop
      vertex 105.06 52.2944 0
      vertex 4.94046 52.2944 0
      vertex 110 55 0
    endloop
  endfacet
  facet normal 0 0 -1
    outer loop
      vertex 4.49443 52.5217 0
      vertex 110 55 0
      vertex 4.94046 52.2944 0
    endloop
  endfacet
  facet normal 0 0 -1
    outer loop
      vertex 0 55 0
      vertex 4.49443 52.5217 0
      vertex 4 52.6 0
    endloop
  endfacet
  facet normal 0 0 -1
    outer loop
      vertex 4.49443 52.5217 0
      vertex 0 55 0
      vertex 110 55 0
    endloop
  endfacet
  facet normal 0 0 -1
    outer loop
      vertex 3.50557 52.5217 0
      vertex 0 55 0
      vertex 4 52.6 0
    endloop
  endfacet
  facet normal 0 0 -1
    outer loop
      vertex 3.05954 52.2944 0
      vertex 0 55 0
      vertex 3.50557 52.5217 0
    endloop
  endfacet
  facet normal 0 0 -1
    outer loop
      vertex 2.70557 51.9405 0
      vertex 0 55 0
      vertex 3.05954 52.2944 0
    endloop
  endfacet
  facet normal 0 0 -1
    outer loop
      vertex 2.47831 51.4944 0
      vertex 0 55 0
      vertex 2.70557 51.9405 0
    endloop
  endfacet
  facet normal 0 0 -1
    outer loop
      vertex 2.4 51 0
      vertex 0 55 0
      vertex 2.47831 51.4944 0
    endloop
  endfacet
  facet normal 0 0 -1
    outer loop
      vertex 2.47831 50.5056 0
      vertex 0 55 0
      vertex 2.4 51 0
    endloop
  endfacet
  facet normal 0 -1 0
    outer loop
      vertex 0 0 0
      vertex 110 0 1
      vertex 0 0 1
    endloop
  endfacet
  facet normal 0 -1 -0
    outer loop
      vertex 110 0 1
      vertex 0 0 0
      vertex 110 0 0
    endloop
  endfacet
  facet normal 1 -0 0
    outer loop
      vertex 10 17 1
      vertex 10 35 0
      vertex 10 35 1
    endloop
  endfacet
  facet normal 1 0 0
    outer loop
      vertex 10 35 0
      vertex 10 17 1
      vertex 10 17 0
    endloop
  endfacet
  facet normal -1 0 0
    outer loop
      vertex 63 17 0
      vertex 63 35 1
      vertex 63 35 0
    endloop
  endfacet
  facet normal -1 -0 0
    outer loop
      vertex 63 35 1
      vertex 63 17 0
      vertex 63 17 1
    endloop
  endfacet
  facet normal 0 1 -0
    outer loop
      vertex 63 17 0
      vertex 10 17 1
      vertex 63 17 1
    endloop
  endfacet
  facet normal 0 1 0
    outer loop
      vertex 10 17 1
      vertex 63 17 0
      vertex 10 17 0
    endloop
  endfacet
  facet normal 0 -1 0
    outer loop
      vertex 10 35 0
      vertex 63 35 1
      vertex 10 35 1
    endloop
  endfacet
  facet normal 0 -1 -0
    outer loop
      vertex 63 35 1
      vertex 10 35 0
      vertex 63 35 0
    endloop
  endfacet
  facet normal -0.987688 -0.156434 0
    outer loop
      vertex 5.6 4 0
      vertex 5.52169 4.49443 1
      vertex 5.52169 4.49443 0
    endloop
  endfacet
  facet normal -0.987688 -0.156434 0
    outer loop
      vertex 5.52169 4.49443 1
      vertex 5.6 4 0
      vertex 5.6 4 1
    endloop
  endfacet
  facet normal 0.987689 0.156433 0
    outer loop
      vertex 2.47831 3.50557 1
      vertex 2.4 4 0
      vertex 2.4 4 1
    endloop
  endfacet
  facet normal 0.987689 0.156433 0
    outer loop
      vertex 2.4 4 0
      vertex 2.47831 3.50557 1
      vertex 2.47831 3.50557 0
    endloop
  endfacet
  facet normal 0.156433 -0.987689 0
    outer loop
      vertex 3.50557 5.52169 0
      vertex 4 5.6 1
      vertex 3.50557 5.52169 1
    endloop
  endfacet
  facet normal 0.156433 -0.987689 0
    outer loop
      vertex 4 5.6 1
      vertex 3.50557 5.52169 0
      vertex 4 5.6 0
    endloop
  endfacet
  facet normal -0.707107 -0.707107 0
    outer loop
      vertex 5.29443 4.94046 0
      vertex 4.94046 5.29443 1
      vertex 4.94046 5.29443 0
    endloop
  endfacet
  facet normal -0.707107 -0.707107 0
    outer loop
      vertex 4.94046 5.29443 1
      vertex 5.29443 4.94046 0
      vertex 5.29443 4.94046 1
    endloop
  endfacet
  facet normal -0.891007 -0.45399 0
    outer loop
      vertex 5.52169 4.49443 0
      vertex 5.29443 4.94046 1
      vertex 5.29443 4.94046 0
    endloop
  endfacet
  facet normal -0.891007 -0.45399 0
    outer loop
      vertex 5.29443 4.94046 1
      vertex 5.52169 4.49443 0
      vertex 5.52169 4.49443 1
    endloop
  endfacet
  facet normal -0.45399 -0.891007 0
    outer loop
      vertex 4.49443 5.52169 0
      vertex 4.94046 5.29443 1
      vertex 4.49443 5.52169 1
    endloop
  endfacet
  facet normal -0.45399 -0.891007 -0
    outer loop
      vertex 4.94046 5.29443 1
      vertex 4.49443 5.52169 0
      vertex 4.94046 5.29443 0
    endloop
  endfacet
  facet normal 0.707107 -0.707107 0
    outer loop
      vertex 2.70557 4.94046 1
      vertex 3.05954 5.29443 0
      vertex 3.05954 5.29443 1
    endloop
  endfacet
  facet normal 0.707107 -0.707107 0
    outer loop
      vertex 3.05954 5.29443 0
      vertex 2.70557 4.94046 1
      vertex 2.70557 4.94046 0
    endloop
  endfacet
  facet normal 0.891007 -0.45399 0
    outer loop
      vertex 2.47831 4.49443 1
      vertex 2.70557 4.94046 0
      vertex 2.70557 4.94046 1
    endloop
  endfacet
  facet normal 0.891007 -0.45399 0
    outer loop
      vertex 2.70557 4.94046 0
      vertex 2.47831 4.49443 1
      vertex 2.47831 4.49443 0
    endloop
  endfacet
  facet normal 0.45399 -0.891007 0
    outer loop
      vertex 3.05954 5.29443 0
      vertex 3.50557 5.52169 1
      vertex 3.05954 5.29443 1
    endloop
  endfacet
  facet normal 0.45399 -0.891007 0
    outer loop
      vertex 3.50557 5.52169 1
      vertex 3.05954 5.29443 0
      vertex 3.50557 5.52169 0
    endloop
  endfacet
  facet normal -0.45399 0.891007 0
    outer loop
      vertex 4.94046 2.70557 0
      vertex 4.49443 2.47831 1
      vertex 4.94046 2.70557 1
    endloop
  endfacet
  facet normal -0.45399 0.891007 0
    outer loop
      vertex 4.49443 2.47831 1
      vertex 4.94046 2.70557 0
      vertex 4.49443 2.47831 0
    endloop
  endfacet
  facet normal -0.891007 0.45399 0
    outer loop
      vertex 5.29443 3.05954 0
      vertex 5.52169 3.50557 1
      vertex 5.52169 3.50557 0
    endloop
  endfacet
  facet normal -0.891007 0.45399 0
    outer loop
      vertex 5.52169 3.50557 1
      vertex 5.29443 3.05954 0
      vertex 5.29443 3.05954 1
    endloop
  endfacet
  facet normal 0.45399 0.891007 -0
    outer loop
      vertex 3.50557 2.47831 0
      vertex 3.05954 2.70557 1
      vertex 3.50557 2.47831 1
    endloop
  endfacet
  facet normal 0.45399 0.891007 0
    outer loop
      vertex 3.05954 2.70557 1
      vertex 3.50557 2.47831 0
      vertex 3.05954 2.70557 0
    endloop
  endfacet
  facet normal 0.891007 0.45399 0
    outer loop
      vertex 2.70557 3.05954 1
      vertex 2.47831 3.50557 0
      vertex 2.47831 3.50557 1
    endloop
  endfacet
  facet normal 0.891007 0.45399 0
    outer loop
      vertex 2.47831 3.50557 0
      vertex 2.70557 3.05954 1
      vertex 2.70557 3.05954 0
    endloop
  endfacet
  facet normal -0.156434 -0.987688 0
    outer loop
      vertex 4 5.6 0
      vertex 4.49443 5.52169 1
      vertex 4 5.6 1
    endloop
  endfacet
  facet normal -0.156434 -0.987688 -0
    outer loop
      vertex 4.49443 5.52169 1
      vertex 4 5.6 0
      vertex 4.49443 5.52169 0
    endloop
  endfacet
  facet normal 0.987688 -0.156434 0
    outer loop
      vertex 2.4 4 1
      vertex 2.47831 4.49443 0
      vertex 2.47831 4.49443 1
    endloop
  endfacet
  facet normal 0.987688 -0.156434 0
    outer loop
      vertex 2.47831 4.49443 0
      vertex 2.4 4 1
      vertex 2.4 4 0
    endloop
  endfacet
  facet normal -0.987689 0.156433 0
    outer loop
      vertex 5.52169 3.50557 0
      vertex 5.6 4 1
      vertex 5.6 4 0
    endloop
  endfacet
  facet normal -0.987689 0.156433 0
    outer loop
      vertex 5.6 4 1
      vertex 5.52169 3.50557 0
      vertex 5.52169 3.50557 1
    endloop
  endfacet
  facet normal -0.707107 0.707107 0
    outer loop
      vertex 4.94046 2.70557 0
      vertex 5.29443 3.05954 1
      vertex 5.29443 3.05954 0
    endloop
  endfacet
  facet normal -0.707107 0.707107 0
    outer loop
      vertex 5.29443 3.05954 1
      vertex 4.94046 2.70557 0
      vertex 4.94046 2.70557 1
    endloop
  endfacet
  facet normal 0.156434 0.987688 -0
    outer loop
      vertex 4 2.4 0
      vertex 3.50557 2.47831 1
      vertex 4 2.4 1
    endloop
  endfacet
  facet normal 0.156434 0.987688 0
    outer loop
      vertex 3.50557 2.47831 1
      vertex 4 2.4 0
      vertex 3.50557 2.47831 0
    endloop
  endfacet
  facet normal 0.707107 0.707107 0
    outer loop
      vertex 3.05954 2.70557 1
      vertex 2.70557 3.05954 0
      vertex 2.70557 3.05954 1
    endloop
  endfacet
  facet normal 0.707107 0.707107 0
    outer loop
      vertex 2.70557 3.05954 0
      vertex 3.05954 2.70557 1
      vertex 3.05954 2.70557 0
    endloop
  endfacet
  facet normal -0.156433 0.987689 0
    outer loop
      vertex 4.49443 2.47831 0
      vertex 4 2.4 1
      vertex 4.49443 2.47831 1
    endloop
  endfacet
  facet normal -0.156433 0.987689 0
    outer loop
      vertex 4 2.4 1
      vertex 4.49443 2.47831 0
      vertex 4 2.4 0
    endloop
  endfacet
  facet normal -0.453992 -0.891006 0
    outer loop
      vertex 4.49443 52.5217 0
      vertex 4.94046 52.2944 1
      vertex 4.49443 52.5217 1
    endloop
  endfacet
  facet normal -0.453992 -0.891006 -0
    outer loop
      vertex 4.94046 52.2944 1
      vertex 4.49443 52.5217 0
      vertex 4.94046 52.2944 0
    endloop
  endfacet
  facet normal 0.987688 -0.156434 0
    outer loop
      vertex 2.4 51 1
      vertex 2.47831 51.4944 0
      vertex 2.47831 51.4944 1
    endloop
  endfacet
  facet normal 0.987688 -0.156434 0
    outer loop
      vertex 2.47831 51.4944 0
      vertex 2.4 51 1
      vertex 2.4 51 0
    endloop
  endfacet
  facet normal -0.987688 0.156434 0
    outer loop
      vertex 5.52169 50.5056 0
      vertex 5.6 51 1
      vertex 5.6 51 0
    endloop
  endfacet
  facet normal -0.987688 0.156434 0
    outer loop
      vertex 5.6 51 1
      vertex 5.52169 50.5056 0
      vertex 5.52169 50.5056 1
    endloop
  endfacet
  facet normal 0.156432 0.987689 -0
    outer loop
      vertex 4 49.4 0
      vertex 3.50557 49.4783 1
      vertex 4 49.4 1
    endloop
  endfacet
  facet normal 0.156432 0.987689 0
    outer loop
      vertex 3.50557 49.4783 1
      vertex 4 49.4 0
      vertex 3.50557 49.4783 0
    endloop
  endfacet
  facet normal -0.707106 -0.707108 0
    outer loop
      vertex 4.94046 52.2944 0
      vertex 5.29443 51.9405 1
      vertex 4.94046 52.2944 1
    endloop
  endfacet
  facet normal -0.707106 -0.707108 -0
    outer loop
      vertex 5.29443 51.9405 1
      vertex 4.94046 52.2944 0
      vertex 5.29443 51.9405 0
    endloop
  endfacet
  facet normal -0.891007 -0.45399 0
    outer loop
      vertex 5.52169 51.4944 0
      vertex 5.29443 51.9405 1
      vertex 5.29443 51.9405 0
    endloop
  endfacet
  facet normal -0.891007 -0.45399 0
    outer loop
      vertex 5.29443 51.9405 1
      vertex 5.52169 51.4944 0
      vertex 5.52169 51.4944 1
    endloop
  endfacet
  facet normal 0.453992 -0.891006 0
    outer loop
      vertex 3.05954 52.2944 0
      vertex 3.50557 52.5217 1
      vertex 3.05954 52.2944 1
    endloop
  endfacet
  facet normal 0.453992 -0.891006 0
    outer loop
      vertex 3.50557 52.5217 1
      vertex 3.05954 52.2944 0
      vertex 3.50557 52.5217 0
    endloop
  endfacet
  facet normal 0.891007 -0.45399 0
    outer loop
      vertex 2.47831 51.4944 1
      vertex 2.70557 51.9405 0
      vertex 2.70557 51.9405 1
    endloop
  endfacet
  facet normal 0.891007 -0.45399 0
    outer loop
      vertex 2.70557 51.9405 0
      vertex 2.47831 51.4944 1
      vertex 2.47831 51.4944 0
    endloop
  endfacet
  facet normal 0.707106 -0.707108 0
    outer loop
      vertex 2.70557 51.9405 0
      vertex 3.05954 52.2944 1
      vertex 2.70557 51.9405 1
    endloop
  endfacet
  facet normal 0.707106 -0.707108 0
    outer loop
      vertex 3.05954 52.2944 1
      vertex 2.70557 51.9405 0
      vertex 3.05954 52.2944 0
    endloop
  endfacet
  facet normal -0.707106 0.707108 0
    outer loop
      vertex 5.29443 50.0595 0
      vertex 4.94046 49.7056 1
      vertex 5.29443 50.0595 1
    endloop
  endfacet
  facet normal -0.707106 0.707108 0
    outer loop
      vertex 4.94046 49.7056 1
      vertex 5.29443 50.0595 0
      vertex 4.94046 49.7056 0
    endloop
  endfacet
  facet normal -0.453992 0.891006 0
    outer loop
      vertex 4.94046 49.7056 0
      vertex 4.49443 49.4783 1
      vertex 4.94046 49.7056 1
    endloop
  endfacet
  facet normal -0.453992 0.891006 0
    outer loop
      vertex 4.49443 49.4783 1
      vertex 4.94046 49.7056 0
      vertex 4.49443 49.4783 0
    endloop
  endfacet
  facet normal -0.891007 0.45399 0
    outer loop
      vertex 5.29443 50.0595 0
      vertex 5.52169 50.5056 1
      vertex 5.52169 50.5056 0
    endloop
  endfacet
  facet normal -0.891007 0.45399 0
    outer loop
      vertex 5.52169 50.5056 1
      vertex 5.29443 50.0595 0
      vertex 5.29443 50.0595 1
    endloop
  endfacet
  facet normal 0.891007 0.45399 0
    outer loop
      vertex 2.70557 50.0595 1
      vertex 2.47831 50.5056 0
      vertex 2.47831 50.5056 1
    endloop
  endfacet
  facet normal 0.891007 0.45399 0
    outer loop
      vertex 2.47831 50.5056 0
      vertex 2.70557 50.0595 1
      vertex 2.70557 50.0595 0
    endloop
  endfacet
  facet normal 0.453992 0.891006 -0
    outer loop
      vertex 3.50557 49.4783 0
      vertex 3.05954 49.7056 1
      vertex 3.50557 49.4783 1
    endloop
  endfacet
  facet normal 0.453992 0.891006 0
    outer loop
      vertex 3.05954 49.7056 1
      vertex 3.50557 49.4783 0
      vertex 3.05954 49.7056 0
    endloop
  endfacet
  facet normal 0.707106 0.707108 -0
    outer loop
      vertex 3.05954 49.7056 0
      vertex 2.70557 50.0595 1
      vertex 3.05954 49.7056 1
    endloop
  endfacet
  facet normal 0.707106 0.707108 0
    outer loop
      vertex 2.70557 50.0595 1
      vertex 3.05954 49.7056 0
      vertex 2.70557 50.0595 0
    endloop
  endfacet
  facet normal 0.156431 -0.987689 0
    outer loop
      vertex 3.50557 52.5217 0
      vertex 4 52.6 1
      vertex 3.50557 52.5217 1
    endloop
  endfacet
  facet normal 0.156431 -0.987689 0
    outer loop
      vertex 4 52.6 1
      vertex 3.50557 52.5217 0
      vertex 4 52.6 0
    endloop
  endfacet
  facet normal -0.156432 -0.987689 0
    outer loop
      vertex 4 52.6 0
      vertex 4.49443 52.5217 1
      vertex 4 52.6 1
    endloop
  endfacet
  facet normal -0.156432 -0.987689 -0
    outer loop
      vertex 4.49443 52.5217 1
      vertex 4 52.6 0
      vertex 4.49443 52.5217 0
    endloop
  endfacet
  facet normal 0.987688 0.156434 0
    outer loop
      vertex 2.47831 50.5056 1
      vertex 2.4 51 0
      vertex 2.4 51 1
    endloop
  endfacet
  facet normal 0.987688 0.156434 0
    outer loop
      vertex 2.4 51 0
      vertex 2.47831 50.5056 1
      vertex 2.47831 50.5056 0
    endloop
  endfacet
  facet normal -0.987688 -0.156434 0
    outer loop
      vertex 5.6 51 0
      vertex 5.52169 51.4944 1
      vertex 5.52169 51.4944 0
    endloop
  endfacet
  facet normal -0.987688 -0.156434 0
    outer loop
      vertex 5.52169 51.4944 1
      vertex 5.6 51 0
      vertex 5.6 51 1
    endloop
  endfacet
  facet normal -0.156431 0.987689 0
    outer loop
      vertex 4.49443 49.4783 0
      vertex 4 49.4 1
      vertex 4.49443 49.4783 1
    endloop
  endfacet
  facet normal -0.156431 0.987689 0
    outer loop
      vertex 4 49.4 1
      vertex 4.49443 49.4783 0
      vertex 4 49.4 0
    endloop
  endfacet
  facet normal -0.45399 -0.891007 0
    outer loop
      vertex 106.494 5.52169 0
      vertex 106.94 5.29443 1
      vertex 106.494 5.52169 1
    endloop
  endfacet
  facet normal -0.45399 -0.891007 -0
    outer loop
      vertex 106.94 5.29443 1
      vertex 106.494 5.52169 0
      vertex 106.94 5.29443 0
    endloop
  endfacet
  facet normal 0.987689 -0.156432 0
    outer loop
      vertex 104.4 4 1
      vertex 104.478 4.49443 0
      vertex 104.478 4.49443 1
    endloop
  endfacet
  facet normal 0.987689 -0.156432 0
    outer loop
      vertex 104.478 4.49443 0
      vertex 104.4 4 1
      vertex 104.4 4 0
    endloop
  endfacet
  facet normal -0.987689 0.156431 0
    outer loop
      vertex 107.522 3.50557 0
      vertex 107.6 4 1
      vertex 107.6 4 0
    endloop
  endfacet
  facet normal -0.987689 0.156431 0
    outer loop
      vertex 107.6 4 1
      vertex 107.522 3.50557 0
      vertex 107.522 3.50557 1
    endloop
  endfacet
  facet normal 0.156432 0.987689 -0
    outer loop
      vertex 106 2.4 0
      vertex 105.506 2.47831 1
      vertex 106 2.4 1
    endloop
  endfacet
  facet normal 0.156432 0.987689 0
    outer loop
      vertex 105.506 2.47831 1
      vertex 106 2.4 0
      vertex 105.506 2.47831 0
    endloop
  endfacet
  facet normal -0.707112 -0.707102 0
    outer loop
      vertex 107.294 4.94046 0
      vertex 106.94 5.29443 1
      vertex 106.94 5.29443 0
    endloop
  endfacet
  facet normal -0.707112 -0.707102 0
    outer loop
      vertex 106.94 5.29443 1
      vertex 107.294 4.94046 0
      vertex 107.294 4.94046 1
    endloop
  endfacet
  facet normal -0.891006 -0.453992 0
    outer loop
      vertex 107.522 4.49443 0
      vertex 107.294 4.94046 1
      vertex 107.294 4.94046 0
    endloop
  endfacet
  facet normal -0.891006 -0.453992 0
    outer loop
      vertex 107.294 4.94046 1
      vertex 107.522 4.49443 0
      vertex 107.522 4.49443 1
    endloop
  endfacet
  facet normal 0.45399 -0.891007 0
    outer loop
      vertex 105.06 5.29443 0
      vertex 105.506 5.52169 1
      vertex 105.06 5.29443 1
    endloop
  endfacet
  facet normal 0.45399 -0.891007 0
    outer loop
      vertex 105.506 5.52169 1
      vertex 105.06 5.29443 0
      vertex 105.506 5.52169 0
    endloop
  endfacet
  facet normal 0.707112 -0.707102 0
    outer loop
      vertex 104.706 4.94046 1
      vertex 105.06 5.29443 0
      vertex 105.06 5.29443 1
    endloop
  endfacet
  facet normal 0.707112 -0.707102 0
    outer loop
      vertex 105.06 5.29443 0
      vertex 104.706 4.94046 1
      vertex 104.706 4.94046 0
    endloop
  endfacet
  facet normal -0.707112 0.707102 0
    outer loop
      vertex 106.94 2.70557 0
      vertex 107.294 3.05954 1
      vertex 107.294 3.05954 0
    endloop
  endfacet
  facet normal -0.707112 0.707102 0
    outer loop
      vertex 107.294 3.05954 1
      vertex 106.94 2.70557 0
      vertex 106.94 2.70557 1
    endloop
  endfacet
  facet normal -0.45399 0.891007 0
    outer loop
      vertex 106.94 2.70557 0
      vertex 106.494 2.47831 1
      vertex 106.94 2.70557 1
    endloop
  endfacet
  facet normal -0.45399 0.891007 0
    outer loop
      vertex 106.494 2.47831 1
      vertex 106.94 2.70557 0
      vertex 106.494 2.47831 0
    endloop
  endfacet
  facet normal -0.891006 0.453992 0
    outer loop
      vertex 107.294 3.05954 0
      vertex 107.522 3.50557 1
      vertex 107.522 3.50557 0
    endloop
  endfacet
  facet normal -0.891006 0.453992 0
    outer loop
      vertex 107.522 3.50557 1
      vertex 107.294 3.05954 0
      vertex 107.294 3.05954 1
    endloop
  endfacet
  facet normal 0.891006 0.453992 0
    outer loop
      vertex 104.706 3.05954 1
      vertex 104.478 3.50557 0
      vertex 104.478 3.50557 1
    endloop
  endfacet
  facet normal 0.891006 0.453992 0
    outer loop
      vertex 104.478 3.50557 0
      vertex 104.706 3.05954 1
      vertex 104.706 3.05954 0
    endloop
  endfacet
  facet normal 0.45399 0.891007 -0
    outer loop
      vertex 105.506 2.47831 0
      vertex 105.06 2.70557 1
      vertex 105.506 2.47831 1
    endloop
  endfacet
  facet normal 0.45399 0.891007 0
    outer loop
      vertex 105.06 2.70557 1
      vertex 105.506 2.47831 0
      vertex 105.06 2.70557 0
    endloop
  endfacet
  facet normal 0.707112 0.707102 0
    outer loop
      vertex 105.06 2.70557 1
      vertex 104.706 3.05954 0
      vertex 104.706 3.05954 1
    endloop
  endfacet
  facet normal 0.707112 0.707102 0
    outer loop
      vertex 104.706 3.05954 0
      vertex 105.06 2.70557 1
      vertex 105.06 2.70557 0
    endloop
  endfacet
  facet normal 0.156432 -0.987689 0
    outer loop
      vertex 105.506 5.52169 0
      vertex 106 5.6 1
      vertex 105.506 5.52169 1
    endloop
  endfacet
  facet normal 0.156432 -0.987689 0
    outer loop
      vertex 106 5.6 1
      vertex 105.506 5.52169 0
      vertex 106 5.6 0
    endloop
  endfacet
  facet normal -0.156432 -0.987689 0
    outer loop
      vertex 106 5.6 0
      vertex 106.494 5.52169 1
      vertex 106 5.6 1
    endloop
  endfacet
  facet normal -0.156432 -0.987689 -0
    outer loop
      vertex 106.494 5.52169 1
      vertex 106 5.6 0
      vertex 106.494 5.52169 0
    endloop
  endfacet
  facet normal 0.987689 0.156431 0
    outer loop
      vertex 104.478 3.50557 1
      vertex 104.4 4 0
      vertex 104.4 4 1
    endloop
  endfacet
  facet normal 0.987689 0.156431 0
    outer loop
      vertex 104.4 4 0
      vertex 104.478 3.50557 1
      vertex 104.478 3.50557 0
    endloop
  endfacet
  facet normal 0.891006 -0.453992 0
    outer loop
      vertex 104.478 4.49443 1
      vertex 104.706 4.94046 0
      vertex 104.706 4.94046 1
    endloop
  endfacet
  facet normal 0.891006 -0.453992 0
    outer loop
      vertex 104.706 4.94046 0
      vertex 104.478 4.49443 1
      vertex 104.478 4.49443 0
    endloop
  endfacet
  facet normal -0.987689 -0.156432 0
    outer loop
      vertex 107.6 4 0
      vertex 107.522 4.49443 1
      vertex 107.522 4.49443 0
    endloop
  endfacet
  facet normal -0.987689 -0.156432 0
    outer loop
      vertex 107.522 4.49443 1
      vertex 107.6 4 0
      vertex 107.6 4 1
    endloop
  endfacet
  facet normal -0.156432 0.987689 0
    outer loop
      vertex 106.494 2.47831 0
      vertex 106 2.4 1
      vertex 106.494 2.47831 1
    endloop
  endfacet
  facet normal -0.156432 0.987689 0
    outer loop
      vertex 106 2.4 1
      vertex 106.494 2.47831 0
      vertex 106 2.4 0
    endloop
  endfacet
  facet normal -0.987689 -0.156432 0
    outer loop
      vertex 107.6 51 0
      vertex 107.522 51.4944 1
      vertex 107.522 51.4944 0
    endloop
  endfacet
  facet normal -0.987689 -0.156432 0
    outer loop
      vertex 107.522 51.4944 1
      vertex 107.6 51 0
      vertex 107.6 51 1
    endloop
  endfacet
  facet normal 0.156431 -0.987689 0
    outer loop
      vertex 105.506 52.5217 0
      vertex 106 52.6 1
      vertex 105.506 52.5217 1
    endloop
  endfacet
  facet normal 0.156431 -0.987689 0
    outer loop
      vertex 106 52.6 1
      vertex 105.506 52.5217 0
      vertex 106 52.6 0
    endloop
  endfacet
  facet normal -0.707111 -0.707103 0
    outer loop
      vertex 107.294 51.9405 0
      vertex 106.94 52.2944 1
      vertex 106.94 52.2944 0
    endloop
  endfacet
  facet normal -0.707111 -0.707103 0
    outer loop
      vertex 106.94 52.2944 1
      vertex 107.294 51.9405 0
      vertex 107.294 51.9405 1
    endloop
  endfacet
  facet normal -0.891006 -0.453992 0
    outer loop
      vertex 107.522 51.4944 0
      vertex 107.294 51.9405 1
      vertex 107.294 51.9405 0
    endloop
  endfacet
  facet normal -0.891006 -0.453992 0
    outer loop
      vertex 107.294 51.9405 1
      vertex 107.522 51.4944 0
      vertex 107.522 51.4944 1
    endloop
  endfacet
  facet normal -0.453992 -0.891006 0
    outer loop
      vertex 106.494 52.5217 0
      vertex 106.94 52.2944 1
      vertex 106.494 52.5217 1
    endloop
  endfacet
  facet normal -0.453992 -0.891006 -0
    outer loop
      vertex 106.94 52.2944 1
      vertex 106.494 52.5217 0
      vertex 106.94 52.2944 0
    endloop
  endfacet
  facet normal 0.707111 -0.707103 0
    outer loop
      vertex 104.706 51.9405 1
      vertex 105.06 52.2944 0
      vertex 105.06 52.2944 1
    endloop
  endfacet
  facet normal 0.707111 -0.707103 0
    outer loop
      vertex 105.06 52.2944 0
      vertex 104.706 51.9405 1
      vertex 104.706 51.9405 0
    endloop
  endfacet
  facet normal 0.891006 -0.453992 0
    outer loop
      vertex 104.478 51.4944 1
      vertex 104.706 51.9405 0
      vertex 104.706 51.9405 1
    endloop
  endfacet
  facet normal 0.891006 -0.453992 0
    outer loop
      vertex 104.706 51.9405 0
      vertex 104.478 51.4944 1
      vertex 104.478 51.4944 0
    endloop
  endfacet
  facet normal 0.453992 -0.891006 0
    outer loop
      vertex 105.06 52.2944 0
      vertex 105.506 52.5217 1
      vertex 105.06 52.2944 1
    endloop
  endfacet
  facet normal 0.453992 -0.891006 0
    outer loop
      vertex 105.506 52.5217 1
      vertex 105.06 52.2944 0
      vertex 105.506 52.5217 0
    endloop
  endfacet
  facet normal -0.453992 0.891006 0
    outer loop
      vertex 106.94 49.7056 0
      vertex 106.494 49.4783 1
      vertex 106.94 49.7056 1
    endloop
  endfacet
  facet normal -0.453992 0.891006 0
    outer loop
      vertex 106.494 49.4783 1
      vertex 106.94 49.7056 0
      vertex 106.494 49.4783 0
    endloop
  endfacet
  facet normal -0.891006 0.453992 0
    outer loop
      vertex 107.294 50.0595 0
      vertex 107.522 50.5056 1
      vertex 107.522 50.5056 0
    endloop
  endfacet
  facet normal -0.891006 0.453992 0
    outer loop
      vertex 107.522 50.5056 1
      vertex 107.294 50.0595 0
      vertex 107.294 50.0595 1
    endloop
  endfacet
  facet normal 0.453992 0.891006 -0
    outer loop
      vertex 105.506 49.4783 0
      vertex 105.06 49.7056 1
      vertex 105.506 49.4783 1
    endloop
  endfacet
  facet normal 0.453992 0.891006 0
    outer loop
      vertex 105.06 49.7056 1
      vertex 105.506 49.4783 0
      vertex 105.06 49.7056 0
    endloop
  endfacet
  facet normal 0.891006 0.453992 0
    outer loop
      vertex 104.706 50.0595 1
      vertex 104.478 50.5056 0
      vertex 104.478 50.5056 1
    endloop
  endfacet
  facet normal 0.891006 0.453992 0
    outer loop
      vertex 104.478 50.5056 0
      vertex 104.706 50.0595 1
      vertex 104.706 50.0595 0
    endloop
  endfacet
  facet normal -0.156431 -0.987689 0
    outer loop
      vertex 106 52.6 0
      vertex 106.494 52.5217 1
      vertex 106 52.6 1
    endloop
  endfacet
  facet normal -0.156431 -0.987689 -0
    outer loop
      vertex 106.494 52.5217 1
      vertex 106 52.6 0
      vertex 106.494 52.5217 0
    endloop
  endfacet
  facet normal 0.987689 -0.156432 0
    outer loop
      vertex 104.4 51 1
      vertex 104.478 51.4944 0
      vertex 104.478 51.4944 1
    endloop
  endfacet
  facet normal 0.987689 -0.156432 0
    outer loop
      vertex 104.478 51.4944 0
      vertex 104.4 51 1
      vertex 104.4 51 0
    endloop
  endfacet
  facet normal -0.987689 0.156432 0
    outer loop
      vertex 107.522 50.5056 0
      vertex 107.6 51 1
      vertex 107.6 51 0
    endloop
  endfacet
  facet normal -0.987689 0.156432 0
    outer loop
      vertex 107.6 51 1
      vertex 107.522 50.5056 0
      vertex 107.522 50.5056 1
    endloop
  endfacet
  facet normal -0.707111 0.707103 0
    outer loop
      vertex 106.94 49.7056 0
      vertex 107.294 50.0595 1
      vertex 107.294 50.0595 0
    endloop
  endfacet
  facet normal -0.707111 0.707103 0
    outer loop
      vertex 107.294 50.0595 1
      vertex 106.94 49.7056 0
      vertex 106.94 49.7056 1
    endloop
  endfacet
  facet normal 0.156431 0.987689 -0
    outer loop
      vertex 106 49.4 0
      vertex 105.506 49.4783 1
      vertex 106 49.4 1
    endloop
  endfacet
  facet normal 0.156431 0.987689 0
    outer loop
      vertex 105.506 49.4783 1
      vertex 106 49.4 0
      vertex 105.506 49.4783 0
    endloop
  endfacet
  facet normal 0.707111 0.707103 0
    outer loop
      vertex 105.06 49.7056 1
      vertex 104.706 50.0595 0
      vertex 104.706 50.0595 1
    endloop
  endfacet
  facet normal 0.707111 0.707103 0
    outer loop
      vertex 104.706 50.0595 0
      vertex 105.06 49.7056 1
      vertex 105.06 49.7056 0
    endloop
  endfacet
  facet normal 0.987689 0.156432 0
    outer loop
      vertex 104.478 50.5056 1
      vertex 104.4 51 0
      vertex 104.4 51 1
    endloop
  endfacet
  facet normal 0.987689 0.156432 0
    outer loop
      vertex 104.4 51 0
      vertex 104.478 50.5056 1
      vertex 104.478 50.5056 0
    endloop
  endfacet
  facet normal -0.156431 0.987689 0
    outer loop
      vertex 106.494 49.4783 0
      vertex 106 49.4 1
      vertex 106.494 49.4783 1
    endloop
  endfacet
  facet normal -0.156431 0.987689 0
    outer loop
      vertex 106 49.4 1
      vertex 106.494 49.4783 0
      vertex 106 49.4 0
    endloop
  endfacet
endsolid OpenSCAD_Model
